<mxfile host="65bd71144e" pages="1">
    <diagram id="9Kj1DvCb_Osgrf3cXfXj" name="Page-1">
        <mxGraphModel dx="195" dy="22.56" grid="0" gridSize="10" guides="1" tooltips="1" connect="1" arrows="1" fold="1" page="1" pageScale="1" pageWidth="1600" pageHeight="900" background="#FFFFFF" math="0" shadow="0">
            <root>
                <mxCell id="0"/>
                <mxCell id="1" parent="0"/>
                <mxCell id="Mp6nSETJtWcOPBxeQtIm-13" value="AWS Cloud" style="points=[[0,0],[0.25,0],[0.5,0],[0.75,0],[1,0],[1,0.25],[1,0.5],[1,0.75],[1,1],[0.75,1],[0.5,1],[0.25,1],[0,1],[0,0.75],[0,0.5],[0,0.25]];outlineConnect=0;gradientColor=none;html=1;whiteSpace=wrap;fontSize=12;fontStyle=0;shape=mxgraph.aws4.group;grIcon=mxgraph.aws4.group_aws_cloud_alt;strokeColor=#232F3E;verticalAlign=top;align=left;spacingLeft=30;fontColor=#232F3E;dashed=0;fillColor=none;" parent="1" vertex="1">
                    <mxGeometry x="160" y="130" width="1390" height="760" as="geometry"/>
                </mxCell>
                <mxCell id="Mp6nSETJtWcOPBxeQtIm-1" value="" style="outlineConnect=0;fontColor=#232F3E;gradientColor=#4D72F3;gradientDirection=north;fillColor=#3334B9;strokeColor=#ffffff;dashed=0;verticalLabelPosition=bottom;verticalAlign=top;align=center;html=1;fontSize=12;fontStyle=0;aspect=fixed;shape=mxgraph.aws4.resourceIcon;resIcon=mxgraph.aws4.dynamodb;" parent="1" vertex="1">
                    <mxGeometry x="1003" y="520" width="78" height="78" as="geometry"/>
                </mxCell>
                <mxCell id="Mp6nSETJtWcOPBxeQtIm-3" value="" style="outlineConnect=0;fontColor=#232F3E;gradientColor=#4D72F3;gradientDirection=north;fillColor=#3334B9;strokeColor=#ffffff;dashed=0;verticalLabelPosition=bottom;verticalAlign=top;align=center;html=1;fontSize=12;fontStyle=0;aspect=fixed;shape=mxgraph.aws4.resourceIcon;resIcon=mxgraph.aws4.dynamodb;" parent="1" vertex="1">
                    <mxGeometry x="527" y="520" width="78" height="78" as="geometry"/>
                </mxCell>
                <mxCell id="Mp6nSETJtWcOPBxeQtIm-12" style="edgeStyle=orthogonalEdgeStyle;rounded=0;orthogonalLoop=1;jettySize=auto;html=1;strokeColor=#4F4F4F;" parent="1" source="Mp6nSETJtWcOPBxeQtIm-4" target="Mp6nSETJtWcOPBxeQtIm-3" edge="1">
                    <mxGeometry relative="1" as="geometry"/>
                </mxCell>
                <mxCell id="Mp6nSETJtWcOPBxeQtIm-14" style="edgeStyle=orthogonalEdgeStyle;rounded=0;orthogonalLoop=1;jettySize=auto;html=1;strokeColor=#4F4F4F;" parent="1" source="Mp6nSETJtWcOPBxeQtIm-4" target="Mp6nSETJtWcOPBxeQtIm-1" edge="1">
                    <mxGeometry relative="1" as="geometry">
                        <Array as="points">
                            <mxPoint x="629" y="450"/>
                            <mxPoint x="829" y="450"/>
                        </Array>
                    </mxGeometry>
                </mxCell>
                <mxCell id="Mp6nSETJtWcOPBxeQtIm-17" value="" style="edgeStyle=orthogonalEdgeStyle;rounded=0;orthogonalLoop=1;jettySize=auto;html=1;strokeColor=#4F4F4F;" parent="1" source="Mp6nSETJtWcOPBxeQtIm-4" target="Mp6nSETJtWcOPBxeQtIm-15" edge="1">
                    <mxGeometry relative="1" as="geometry">
                        <mxPoint x="566" y="160" as="targetPoint"/>
                    </mxGeometry>
                </mxCell>
                <mxCell id="Mp6nSETJtWcOPBxeQtIm-76" style="edgeStyle=orthogonalEdgeStyle;rounded=0;orthogonalLoop=1;jettySize=auto;html=1;strokeColor=#4F4F4F;" parent="1" source="Mp6nSETJtWcOPBxeQtIm-4" target="Mp6nSETJtWcOPBxeQtIm-75" edge="1">
                    <mxGeometry relative="1" as="geometry">
                        <Array as="points">
                            <mxPoint x="566" y="210"/>
                        </Array>
                    </mxGeometry>
                </mxCell>
                <mxCell id="AKmsXylE_QyVyKZ4LMGY-3" style="edgeStyle=orthogonalEdgeStyle;rounded=0;orthogonalLoop=1;jettySize=auto;html=1;strokeColor=#000000;" parent="1" source="Mp6nSETJtWcOPBxeQtIm-4" target="AKmsXylE_QyVyKZ4LMGY-1" edge="1">
                    <mxGeometry relative="1" as="geometry"/>
                </mxCell>
                <mxCell id="Mp6nSETJtWcOPBxeQtIm-4" value="" style="outlineConnect=0;fontColor=#232F3E;gradientColor=#F78E04;gradientDirection=north;fillColor=#D05C17;strokeColor=#ffffff;dashed=0;verticalLabelPosition=bottom;verticalAlign=top;align=center;html=1;fontSize=12;fontStyle=0;aspect=fixed;shape=mxgraph.aws4.resourceIcon;resIcon=mxgraph.aws4.lambda;" parent="1" vertex="1">
                    <mxGeometry x="527" y="320" width="78" height="78" as="geometry"/>
                </mxCell>
                <mxCell id="Mp6nSETJtWcOPBxeQtIm-26" style="edgeStyle=orthogonalEdgeStyle;rounded=0;orthogonalLoop=1;jettySize=auto;html=1;strokeColor=#4F4F4F;" parent="1" source="Mp6nSETJtWcOPBxeQtIm-6" target="Mp6nSETJtWcOPBxeQtIm-1" edge="1">
                    <mxGeometry relative="1" as="geometry">
                        <Array as="points">
                            <mxPoint x="1432" y="559"/>
                        </Array>
                    </mxGeometry>
                </mxCell>
                <mxCell id="Mp6nSETJtWcOPBxeQtIm-41" style="edgeStyle=orthogonalEdgeStyle;rounded=0;orthogonalLoop=1;jettySize=auto;html=1;strokeColor=#4F4F4F;" parent="1" source="Mp6nSETJtWcOPBxeQtIm-6" target="Mp6nSETJtWcOPBxeQtIm-18" edge="1">
                    <mxGeometry relative="1" as="geometry">
                        <Array as="points">
                            <mxPoint x="1432" y="250"/>
                            <mxPoint x="1052" y="250"/>
                        </Array>
                    </mxGeometry>
                </mxCell>
                <mxCell id="AKmsXylE_QyVyKZ4LMGY-6" style="edgeStyle=orthogonalEdgeStyle;rounded=0;orthogonalLoop=1;jettySize=auto;html=1;strokeColor=#000000;" parent="1" source="Mp6nSETJtWcOPBxeQtIm-6" target="Mp6nSETJtWcOPBxeQtIm-21" edge="1">
                    <mxGeometry relative="1" as="geometry"/>
                </mxCell>
                <mxCell id="Mp6nSETJtWcOPBxeQtIm-6" value="" style="outlineConnect=0;fontColor=#232F3E;gradientColor=#F78E04;gradientDirection=north;fillColor=#D05C17;strokeColor=#ffffff;dashed=0;verticalLabelPosition=bottom;verticalAlign=top;align=center;html=1;fontSize=12;fontStyle=0;aspect=fixed;shape=mxgraph.aws4.resourceIcon;resIcon=mxgraph.aws4.lambda;" parent="1" vertex="1">
                    <mxGeometry x="1393" y="320" width="78" height="78" as="geometry"/>
                </mxCell>
                <mxCell id="Mp6nSETJtWcOPBxeQtIm-9" style="edgeStyle=orthogonalEdgeStyle;rounded=0;orthogonalLoop=1;jettySize=auto;html=1;strokeColor=#4F4F4F;" parent="1" source="Mp6nSETJtWcOPBxeQtIm-8" target="Mp6nSETJtWcOPBxeQtIm-4" edge="1">
                    <mxGeometry relative="1" as="geometry"/>
                </mxCell>
                <mxCell id="Mp6nSETJtWcOPBxeQtIm-8" value="" style="outlineConnect=0;fontColor=#232F3E;gradientColor=none;fillColor=#BC1356;strokeColor=none;dashed=0;verticalLabelPosition=bottom;verticalAlign=top;align=center;html=1;fontSize=12;fontStyle=0;aspect=fixed;pointerEvents=1;shape=mxgraph.aws4.event_time_based;" parent="1" vertex="1">
                    <mxGeometry x="306" y="320" width="78" height="78" as="geometry"/>
                </mxCell>
                <mxCell id="Mp6nSETJtWcOPBxeQtIm-15" value="" style="dashed=0;outlineConnect=0;html=1;align=center;labelPosition=center;verticalLabelPosition=bottom;verticalAlign=top;shape=mxgraph.weblogos.youtube_2;fillColor=#FF2626;gradientColor=#B5171F" parent="1" vertex="1">
                    <mxGeometry x="536.8" y="30.000000000000007" width="58.4" height="42.6" as="geometry"/>
                </mxCell>
                <mxCell id="Mp6nSETJtWcOPBxeQtIm-27" style="edgeStyle=orthogonalEdgeStyle;rounded=0;orthogonalLoop=1;jettySize=auto;html=1;strokeColor=#4F4F4F;" parent="1" source="Mp6nSETJtWcOPBxeQtIm-18" target="Mp6nSETJtWcOPBxeQtIm-22" edge="1">
                    <mxGeometry relative="1" as="geometry"/>
                </mxCell>
                <mxCell id="Mp6nSETJtWcOPBxeQtIm-18" value="" style="outlineConnect=0;fontColor=#232F3E;gradientColor=none;fillColor=#BC1356;strokeColor=none;dashed=0;verticalLabelPosition=bottom;verticalAlign=top;align=center;html=1;fontSize=12;fontStyle=0;aspect=fixed;pointerEvents=1;shape=mxgraph.aws4.event_time_based;" parent="1" vertex="1">
                    <mxGeometry x="1013" y="320" width="78" height="78" as="geometry"/>
                </mxCell>
                <mxCell id="Mp6nSETJtWcOPBxeQtIm-21" value="" style="dashed=0;outlineConnect=0;html=1;align=center;labelPosition=center;verticalLabelPosition=bottom;verticalAlign=top;shape=mxgraph.weblogos.twitter;fillColor=#1DA1F2;strokeColor=none" parent="1" vertex="1">
                    <mxGeometry x="1392" y="16.29999999999997" width="80" height="70" as="geometry"/>
                </mxCell>
                <mxCell id="Mp6nSETJtWcOPBxeQtIm-24" style="edgeStyle=orthogonalEdgeStyle;rounded=0;orthogonalLoop=1;jettySize=auto;html=1;strokeColor=#4F4F4F;" parent="1" source="Mp6nSETJtWcOPBxeQtIm-22" target="Mp6nSETJtWcOPBxeQtIm-6" edge="1">
                    <mxGeometry relative="1" as="geometry"/>
                </mxCell>
                <mxCell id="Mp6nSETJtWcOPBxeQtIm-22" value="" style="outlineConnect=0;fontColor=#232F3E;gradientColor=#F34482;gradientDirection=north;fillColor=#BC1356;strokeColor=#ffffff;dashed=0;verticalLabelPosition=bottom;verticalAlign=top;align=center;html=1;fontSize=12;fontStyle=0;aspect=fixed;shape=mxgraph.aws4.resourceIcon;resIcon=mxgraph.aws4.sqs;" parent="1" vertex="1">
                    <mxGeometry x="1203" y="320" width="78" height="78" as="geometry"/>
                </mxCell>
                <mxCell id="Mp6nSETJtWcOPBxeQtIm-31" style="edgeStyle=orthogonalEdgeStyle;rounded=0;orthogonalLoop=1;jettySize=auto;html=1;strokeColor=#4F4F4F;" parent="1" source="Mp6nSETJtWcOPBxeQtIm-29" target="Mp6nSETJtWcOPBxeQtIm-1" edge="1">
                    <mxGeometry relative="1" as="geometry"/>
                </mxCell>
                <mxCell id="7yaGFpNtUyp5XE1QbwC2-1" style="edgeStyle=orthogonalEdgeStyle;rounded=0;orthogonalLoop=1;jettySize=auto;html=1;strokeColor=#000000;" parent="1" source="Mp6nSETJtWcOPBxeQtIm-29" target="AKmsXylE_QyVyKZ4LMGY-1" edge="1">
                    <mxGeometry relative="1" as="geometry"/>
                </mxCell>
                <mxCell id="Mp6nSETJtWcOPBxeQtIm-29" value="" style="outlineConnect=0;fontColor=#232F3E;gradientColor=#F78E04;gradientDirection=north;fillColor=#D05C17;strokeColor=#ffffff;dashed=0;verticalLabelPosition=bottom;verticalAlign=top;align=center;html=1;fontSize=12;fontStyle=0;aspect=fixed;shape=mxgraph.aws4.resourceIcon;resIcon=mxgraph.aws4.lambda;" parent="1" vertex="1">
                    <mxGeometry x="689" y="710" width="78" height="78" as="geometry"/>
                </mxCell>
                <mxCell id="Mp6nSETJtWcOPBxeQtIm-36" value="&lt;span style=&quot;color: rgba(0 , 0 , 0 , 0) ; font-family: monospace ; font-size: 0px&quot;&gt;%3CmxGraphModel%3E%3Croot%3E%3CmxCell%20id%3D%220%22%2F%3E%3CmxCell%20id%3D%221%22%20parent%3D%220%22%2F%3E%3CmxCell%20id%3D%222%22%20value%3D%22%26lt%3Bdiv%20style%3D%26quot%3Bcolor%3A%20rgb(248%20%2C%20248%20%2C%20242)%20%3B%20background-color%3A%20rgb(39%20%2C%2040%20%2C%2034)%20%3B%20font-family%3A%20%26amp%3B%2334%3Bconsolas%26amp%3B%2334%3B%20%2C%20%26amp%3B%2334%3Bcourier%20new%26amp%3B%2334%3B%20%2C%20monospace%20%3B%20font-size%3A%2014px%20%3B%20line-height%3A%2019px%20%3B%20white-space%3A%20pre%26quot%3B%26gt%3B%26lt%3Bspan%20style%3D%26quot%3Bcolor%3A%20%23e6db74%26quot%3B%26gt%3Byoutube-schedule-service%26lt%3B%2Fspan%26gt%3B%26lt%3B%2Fdiv%26gt%3B%22%20style%3D%22text%3Bhtml%3D1%3Balign%3Dcenter%3BverticalAlign%3Dmiddle%3Bresizable%3D0%3Bpoints%3D%5B%5D%3B%3Bautosize%3D1%3B%22%20vertex%3D%221%22%20parent%3D%221%22%3E%3CmxGeometry%20x%3D%22460%22%20y%3D%22800%22%20width%3D%22200%22%20height%3D%2220%22%20as%3D%22geometry%22%2F%3E%3C%2FmxCell%3E%3C%2Froot%3E%3C%2FmxGraphModel%3E&lt;/span&gt;" style="text;html=1;align=center;verticalAlign=middle;resizable=0;points=[];;autosize=1;" parent="1" vertex="1">
                    <mxGeometry x="669" y="842" width="20" height="20" as="geometry"/>
                </mxCell>
                <mxCell id="Mp6nSETJtWcOPBxeQtIm-40" value="lmd_youtube_schedule_service_cdk" style="text;html=1;align=center;verticalAlign=middle;resizable=0;points=[];;autosize=1;labelBackgroundColor=#ffffff;fontColor=#000000;" parent="1" vertex="1">
                    <mxGeometry x="461" y="415" width="210" height="20" as="geometry"/>
                </mxCell>
                <mxCell id="Mp6nSETJtWcOPBxeQtIm-43" style="edgeStyle=orthogonalEdgeStyle;rounded=0;orthogonalLoop=1;jettySize=auto;html=1;strokeColor=#4F4F4F;" parent="1" source="Mp6nSETJtWcOPBxeQtIm-42" target="Mp6nSETJtWcOPBxeQtIm-29" edge="1">
                    <mxGeometry relative="1" as="geometry"/>
                </mxCell>
                <mxCell id="Mp6nSETJtWcOPBxeQtIm-49" style="edgeStyle=orthogonalEdgeStyle;rounded=0;orthogonalLoop=1;jettySize=auto;html=1;strokeColor=#4F4F4F;" parent="1" source="Mp6nSETJtWcOPBxeQtIm-42" target="Mp6nSETJtWcOPBxeQtIm-47" edge="1">
                    <mxGeometry relative="1" as="geometry">
                        <Array as="points">
                            <mxPoint x="200" y="749"/>
                            <mxPoint x="200" y="559"/>
                        </Array>
                    </mxGeometry>
                </mxCell>
                <mxCell id="Mp6nSETJtWcOPBxeQtIm-42" value="" style="outlineConnect=0;fontColor=#232F3E;gradientColor=none;fillColor=#232F3E;strokeColor=none;dashed=0;verticalLabelPosition=bottom;verticalAlign=top;align=center;html=1;fontSize=12;fontStyle=0;aspect=fixed;pointerEvents=1;shape=mxgraph.aws4.user;labelBackgroundColor=#ffffff;" parent="1" vertex="1">
                    <mxGeometry x="30" y="710" width="78" height="78" as="geometry"/>
                </mxCell>
                <mxCell id="Mp6nSETJtWcOPBxeQtIm-78" style="edgeStyle=orthogonalEdgeStyle;rounded=0;orthogonalLoop=1;jettySize=auto;html=1;strokeColor=#4F4F4F;" parent="1" source="Mp6nSETJtWcOPBxeQtIm-44" target="Mp6nSETJtWcOPBxeQtIm-77" edge="1">
                    <mxGeometry relative="1" as="geometry"/>
                </mxCell>
                <mxCell id="Mp6nSETJtWcOPBxeQtIm-44" value="lmd_post_twitter_service_cdk" style="text;html=1;align=center;labelBackgroundColor=#ffffff;fontColor=#000000;" parent="1" vertex="1">
                    <mxGeometry x="1362" y="415" width="140" height="25" as="geometry"/>
                </mxCell>
                <mxCell id="Mp6nSETJtWcOPBxeQtIm-46" value="lmd_manual_schedule_service_cdk" style="text;html=1;align=center;labelBackgroundColor=#ffffff;fontColor=#000000;" parent="1" vertex="1">
                    <mxGeometry x="658" y="800" width="140" height="25" as="geometry"/>
                </mxCell>
                <mxCell id="Mp6nSETJtWcOPBxeQtIm-48" style="edgeStyle=orthogonalEdgeStyle;rounded=0;orthogonalLoop=1;jettySize=auto;html=1;strokeColor=#4F4F4F;" parent="1" source="Mp6nSETJtWcOPBxeQtIm-47" target="Mp6nSETJtWcOPBxeQtIm-3" edge="1">
                    <mxGeometry relative="1" as="geometry"/>
                </mxCell>
                <mxCell id="Mp6nSETJtWcOPBxeQtIm-47" value="" style="outlineConnect=0;fontColor=#232F3E;gradientColor=#F78E04;gradientDirection=north;fillColor=#D05C17;strokeColor=#ffffff;dashed=0;verticalLabelPosition=bottom;verticalAlign=top;align=center;html=1;fontSize=12;fontStyle=0;aspect=fixed;shape=mxgraph.aws4.resourceIcon;resIcon=mxgraph.aws4.lambda;" parent="1" vertex="1">
                    <mxGeometry x="306" y="520" width="78" height="78" as="geometry"/>
                </mxCell>
                <mxCell id="Mp6nSETJtWcOPBxeQtIm-50" value="dyn_schedule_master_table_cdk" style="text;html=1;align=center;labelBackgroundColor=#ffffff;fontColor=#000000;" parent="1" vertex="1">
                    <mxGeometry x="496" y="608" width="140" height="25" as="geometry"/>
                </mxCell>
                <mxCell id="Mp6nSETJtWcOPBxeQtIm-51" value="dyn_notify_controller_table_cdk" style="text;html=1;align=center;labelBackgroundColor=#ffffff;fontColor=#000000;" parent="1" vertex="1">
                    <mxGeometry x="972" y="608" width="140" height="25" as="geometry"/>
                </mxCell>
                <mxCell id="Mp6nSETJtWcOPBxeQtIm-52" value="lmd_register_schedule_master_service_cdk" style="text;html=1;align=center;labelBackgroundColor=#ffffff;fontColor=#000000;" parent="1" vertex="1">
                    <mxGeometry x="275" y="608" width="140" height="25" as="geometry"/>
                </mxCell>
                <mxCell id="Mp6nSETJtWcOPBxeQtIm-54" value="rul_youtube_schedule_service_cdk" style="text;html=1;align=center;verticalAlign=middle;resizable=0;points=[];;autosize=1;labelBackgroundColor=#ffffff;fontColor=#000000;" parent="1" vertex="1">
                    <mxGeometry x="245" y="415" width="200" height="20" as="geometry"/>
                </mxCell>
                <mxCell id="Mp6nSETJtWcOPBxeQtIm-56" value="sqs_post_twitter_service_cdk" style="text;html=1;align=center;labelBackgroundColor=#ffffff;fontColor=#000000;" parent="1" vertex="1">
                    <mxGeometry x="1181" y="415" width="140" height="25" as="geometry"/>
                </mxCell>
                <mxCell id="Mp6nSETJtWcOPBxeQtIm-57" value="rul_{channel_id}_{video_id}_sdk" style="text;html=1;align=center;verticalAlign=middle;resizable=0;points=[];;autosize=1;labelBackgroundColor=#ffffff;fontColor=#000000;" parent="1" vertex="1">
                    <mxGeometry x="957" y="290" width="190" height="20" as="geometry"/>
                </mxCell>
                <mxCell id="Mp6nSETJtWcOPBxeQtIm-58" value="C" style="ellipse;whiteSpace=wrap;html=1;aspect=fixed;labelBackgroundColor=#ffffff;align=center;fillColor=#fff2cc;strokeColor=#d6b656;fontColor=#000000;" parent="1" vertex="1">
                    <mxGeometry x="400" y="520" width="30" height="30" as="geometry"/>
                </mxCell>
                <mxCell id="Mp6nSETJtWcOPBxeQtIm-59" value="R" style="ellipse;whiteSpace=wrap;html=1;aspect=fixed;labelBackgroundColor=#ffffff;align=center;fillColor=#d5e8d4;strokeColor=#82b366;fontColor=#000000;" parent="1" vertex="1">
                    <mxGeometry x="575" y="470" width="30" height="30" as="geometry"/>
                </mxCell>
                <mxCell id="Mp6nSETJtWcOPBxeQtIm-62" value="R" style="ellipse;whiteSpace=wrap;html=1;aspect=fixed;labelBackgroundColor=#ffffff;align=center;fillColor=#d5e8d4;strokeColor=#82b366;fontColor=#000000;" parent="1" vertex="1">
                    <mxGeometry x="1151" y="518" width="30" height="30" as="geometry"/>
                </mxCell>
                <mxCell id="Mp6nSETJtWcOPBxeQtIm-63" value="C" style="ellipse;whiteSpace=wrap;html=1;aspect=fixed;labelBackgroundColor=#ffffff;align=center;fillColor=#fff2cc;strokeColor=#d6b656;fontColor=#000000;" parent="1" vertex="1">
                    <mxGeometry x="930" y="320" width="30" height="30" as="geometry"/>
                </mxCell>
                <mxCell id="Mp6nSETJtWcOPBxeQtIm-64" value="D" style="ellipse;whiteSpace=wrap;html=1;aspect=fixed;labelBackgroundColor=#ffffff;align=center;fillColor=#f8cecc;strokeColor=#b85450;fontColor=#000000;" parent="1" vertex="1">
                    <mxGeometry x="1173" y="210" width="30" height="30" as="geometry"/>
                </mxCell>
                <mxCell id="Mp6nSETJtWcOPBxeQtIm-66" value="U" style="ellipse;whiteSpace=wrap;html=1;aspect=fixed;labelBackgroundColor=#ffffff;align=center;fillColor=#dae8fc;strokeColor=#6c8ebf;fontColor=#000000;" parent="1" vertex="1">
                    <mxGeometry x="973" y="320" width="30" height="30" as="geometry"/>
                </mxCell>
                <mxCell id="Mp6nSETJtWcOPBxeQtIm-67" value="D" style="ellipse;whiteSpace=wrap;html=1;aspect=fixed;labelBackgroundColor=#ffffff;align=center;fillColor=#f8cecc;strokeColor=#b85450;fontColor=#000000;" parent="1" vertex="1">
                    <mxGeometry x="1191" y="518" width="32" height="32" as="geometry"/>
                </mxCell>
                <mxCell id="Mp6nSETJtWcOPBxeQtIm-68" value="U" style="ellipse;whiteSpace=wrap;html=1;aspect=fixed;labelBackgroundColor=#ffffff;align=center;fillColor=#dae8fc;strokeColor=#6c8ebf;fontColor=#000000;" parent="1" vertex="1">
                    <mxGeometry x="438" y="520" width="30" height="30" as="geometry"/>
                </mxCell>
                <mxCell id="Mp6nSETJtWcOPBxeQtIm-69" value="D" style="ellipse;whiteSpace=wrap;html=1;aspect=fixed;labelBackgroundColor=#ffffff;align=center;fillColor=#f8cecc;strokeColor=#b85450;fontColor=#000000;" parent="1" vertex="1">
                    <mxGeometry x="478" y="519" width="32" height="32" as="geometry"/>
                </mxCell>
                <mxCell id="Mp6nSETJtWcOPBxeQtIm-70" value="C" style="ellipse;whiteSpace=wrap;html=1;aspect=fixed;labelBackgroundColor=#ffffff;align=center;fillColor=#fff2cc;strokeColor=#d6b656;fontColor=#000000;" parent="1" vertex="1">
                    <mxGeometry x="1057" y="660" width="30" height="30" as="geometry"/>
                </mxCell>
                <mxCell id="Mp6nSETJtWcOPBxeQtIm-71" value="U" style="ellipse;whiteSpace=wrap;html=1;aspect=fixed;labelBackgroundColor=#ffffff;align=center;fillColor=#dae8fc;strokeColor=#6c8ebf;fontColor=#000000;" parent="1" vertex="1">
                    <mxGeometry x="1094" y="660" width="30" height="30" as="geometry"/>
                </mxCell>
                <mxCell id="Mp6nSETJtWcOPBxeQtIm-74" value="R" style="ellipse;whiteSpace=wrap;html=1;aspect=fixed;labelBackgroundColor=#ffffff;align=center;fillColor=#d5e8d4;strokeColor=#82b366;fontColor=#000000;" parent="1" vertex="1">
                    <mxGeometry x="438" y="170" width="30" height="30" as="geometry"/>
                </mxCell>
                <mxCell id="Mp6nSETJtWcOPBxeQtIm-75" value="" style="outlineConnect=0;fontColor=#232F3E;gradientColor=none;fillColor=#BC1356;strokeColor=none;dashed=0;verticalLabelPosition=bottom;verticalAlign=top;align=center;html=1;fontSize=12;fontStyle=0;aspect=fixed;pointerEvents=1;shape=mxgraph.aws4.parameter_store;labelBackgroundColor=#ffffff;" parent="1" vertex="1">
                    <mxGeometry x="307.5" y="170" width="75" height="78" as="geometry"/>
                </mxCell>
                <mxCell id="Mp6nSETJtWcOPBxeQtIm-77" value="" style="outlineConnect=0;fontColor=#232F3E;gradientColor=none;fillColor=#BC1356;strokeColor=none;dashed=0;verticalLabelPosition=bottom;verticalAlign=top;align=center;html=1;fontSize=12;fontStyle=0;aspect=fixed;pointerEvents=1;shape=mxgraph.aws4.parameter_store;labelBackgroundColor=#ffffff;" parent="1" vertex="1">
                    <mxGeometry x="1394.5" y="710" width="75" height="78" as="geometry"/>
                </mxCell>
                <mxCell id="Mp6nSETJtWcOPBxeQtIm-79" value="youtube_api_key" style="text;html=1;align=center;verticalAlign=middle;resizable=0;points=[];;autosize=1;labelBackgroundColor=#ffffff;fontColor=#000000;" parent="1" vertex="1">
                    <mxGeometry x="280" y="258" width="110" height="20" as="geometry"/>
                </mxCell>
                <mxCell id="Mp6nSETJtWcOPBxeQtIm-80" value="&lt;div&gt;twitter_api_key&lt;/div&gt;&lt;div&gt;twitter_api_secret_key&lt;/div&gt;&lt;div&gt;twitter_access_token&lt;/div&gt;&lt;div&gt;twitter_access_token_secret&lt;/div&gt;" style="text;html=1;align=center;labelBackgroundColor=#ffffff;fontColor=#000000;" parent="1" vertex="1">
                    <mxGeometry x="1337.5" y="800" width="189" height="70" as="geometry"/>
                </mxCell>
                <mxCell id="Mp6nSETJtWcOPBxeQtIm-81" value="R" style="ellipse;whiteSpace=wrap;html=1;aspect=fixed;labelBackgroundColor=#ffffff;align=center;fillColor=#d5e8d4;strokeColor=#82b366;fontColor=#000000;" parent="1" vertex="1">
                    <mxGeometry x="1439.5" y="660" width="30" height="30" as="geometry"/>
                </mxCell>
                <mxCell id="Mp6nSETJtWcOPBxeQtIm-82" value="C" style="ellipse;whiteSpace=wrap;html=1;aspect=fixed;labelBackgroundColor=#ffffff;align=center;fillColor=#fff2cc;strokeColor=#d6b656;fontColor=#000000;" parent="1" vertex="1">
                    <mxGeometry x="1057" y="470" width="30" height="30" as="geometry"/>
                </mxCell>
                <mxCell id="Mp6nSETJtWcOPBxeQtIm-83" value="U" style="ellipse;whiteSpace=wrap;html=1;aspect=fixed;labelBackgroundColor=#ffffff;align=center;fillColor=#dae8fc;strokeColor=#6c8ebf;fontColor=#000000;" parent="1" vertex="1">
                    <mxGeometry x="1094" y="470" width="30" height="30" as="geometry"/>
                </mxCell>
                <mxCell id="AKmsXylE_QyVyKZ4LMGY-4" style="edgeStyle=orthogonalEdgeStyle;rounded=0;orthogonalLoop=1;jettySize=auto;html=1;strokeColor=#000000;" parent="1" source="AKmsXylE_QyVyKZ4LMGY-1" target="AKmsXylE_QyVyKZ4LMGY-2" edge="1">
                    <mxGeometry relative="1" as="geometry"/>
                </mxCell>
                <mxCell id="AKmsXylE_QyVyKZ4LMGY-1" value="" style="outlineConnect=0;fontColor=#232F3E;gradientColor=#F34482;gradientDirection=north;fillColor=#BC1356;strokeColor=#ffffff;dashed=0;verticalLabelPosition=bottom;verticalAlign=top;align=center;html=1;fontSize=12;fontStyle=0;aspect=fixed;shape=mxgraph.aws4.resourceIcon;resIcon=mxgraph.aws4.sns;" parent="1" vertex="1">
                    <mxGeometry x="689" y="320" width="78" height="78" as="geometry"/>
                </mxCell>
                <mxCell id="AKmsXylE_QyVyKZ4LMGY-5" style="edgeStyle=orthogonalEdgeStyle;rounded=0;orthogonalLoop=1;jettySize=auto;html=1;strokeColor=#000000;" parent="1" source="AKmsXylE_QyVyKZ4LMGY-2" target="Mp6nSETJtWcOPBxeQtIm-18" edge="1">
                    <mxGeometry relative="1" as="geometry"/>
                </mxCell>
                <mxCell id="AKmsXylE_QyVyKZ4LMGY-2" value="" style="outlineConnect=0;fontColor=#232F3E;gradientColor=#F78E04;gradientDirection=north;fillColor=#D05C17;strokeColor=#ffffff;dashed=0;verticalLabelPosition=bottom;verticalAlign=top;align=center;html=1;fontSize=12;fontStyle=0;aspect=fixed;shape=mxgraph.aws4.resourceIcon;resIcon=mxgraph.aws4.lambda;" parent="1" vertex="1">
                    <mxGeometry x="840" y="320" width="78" height="78" as="geometry"/>
                </mxCell>
                <mxCell id="AKmsXylE_QyVyKZ4LMGY-7" value="sns_youtube_schedule_service_cdk" style="text;html=1;align=center;verticalAlign=middle;resizable=0;points=[];;autosize=1;labelBackgroundColor=#ffffff;fontColor=#000000;" parent="1" vertex="1">
                    <mxGeometry x="623" y="290" width="210" height="20" as="geometry"/>
                </mxCell>
                <mxCell id="AKmsXylE_QyVyKZ4LMGY-9" value="lmd_create_rule_service_cdk" style="text;html=1;align=center;verticalAlign=middle;resizable=0;points=[];;autosize=1;labelBackgroundColor=#ffffff;fontColor=#000000;" parent="1" vertex="1">
                    <mxGeometry x="794" y="415" width="170" height="20" as="geometry"/>
                </mxCell>
            </root>
        </mxGraphModel>
    </diagram>
</mxfile>